HIERARCHY
ROOT Hips
{
    OFFSET 0.000000 0.000000 0.000000
    CHANNELS 6 Xposition Yposition Zposition Zrotation Xrotation Yrotation
    JOINT Spine
    {
        OFFSET -0.000000 14.517291 0.000000
        CHANNELS 3 Zrotation Xrotation Yrotation
        JOINT Spine1
        {
            OFFSET -0.000000 37.558300 0.000000
            CHANNELS 3 Zrotation Xrotation Yrotation
            JOINT Neck
            {
                OFFSET -0.000000 37.404057 3.400369
                CHANNELS 3 Zrotation Xrotation Yrotation
                JOINT Head
                {
                    OFFSET -0.000000 24.785618 -3.540803
                    CHANNELS 3 Zrotation Xrotation Yrotation
                    End Site
                    {
                        OFFSET -0.000000 35.408028 0.000000
                    }
                }
            }
            JOINT LeftShoulder
            {
                OFFSET 6.992933 33.973492 -0.192664
                CHANNELS 3 Zrotation Xrotation Yrotation
                JOINT LeftArm
                {
                    OFFSET 21.527611 0.000000 0.000000
                    CHANNELS 3 Zrotation Xrotation Yrotation
                    JOINT LeftForeArm
                    {
                        OFFSET 56.353916 0.000000 0.000000
                        CHANNELS 3 Zrotation Xrotation Yrotation
                        JOINT LeftHand
                        {
                            OFFSET 47.774071 0.000000 0.000000
                            CHANNELS 3 Zrotation Xrotation Yrotation
                            End Site
                            {
                                OFFSET 26.556021 0.000000 0.000000
                            }
                        }
                    }
                }
            }
            JOINT RightShoulder
            {
                OFFSET -7.065357 33.973492 -0.192664
                CHANNELS 3 Zrotation Xrotation Yrotation
                JOINT RightArm
                {
                    OFFSET -21.527611 0.000000 0.000000
                    CHANNELS 3 Zrotation Xrotation Yrotation
                    JOINT RightForeArm
                    {
                        OFFSET -56.353916 0.000000 0.000000
                        CHANNELS 3 Zrotation Xrotation Yrotation
                        JOINT RightHand
                        {
                            OFFSET -47.774071 0.000000 0.000000
                            CHANNELS 3 Zrotation Xrotation Yrotation
                            End Site
                            {
                                OFFSET -26.556021 0.000000 0.000000
                            }
                        }
                    }
                }
            }
        }
    }
    JOINT LeftUpLeg
    {
        OFFSET 17.704014 0.000000 0.000000
        CHANNELS 3 Zrotation Xrotation Yrotation
        JOINT LeftLeg
        {
            OFFSET -0.000000 -81.181816 0.000000
            CHANNELS 3 Zrotation Xrotation Yrotation
            JOINT LeftFoot
            {
                OFFSET -0.000000 -62.821102 0.000000
                CHANNELS 3 Zrotation Xrotation Yrotation
                JOINT LeftToeBase
                {
                    OFFSET -0.000000 -11.507608 26.556021
                    CHANNELS 3 Zrotation Xrotation Yrotation
                    End Site
                    {
                        OFFSET -0.000000 0.000000 7.081605
                    }
                }
            }
        }
    }
    JOINT RightUpLeg
    {
        OFFSET -17.704014 0.000000 0.000000
        CHANNELS 3 Zrotation Xrotation Yrotation
        JOINT RightLeg
        {
            OFFSET -0.000000 -81.181816 0.000000
            CHANNELS 3 Zrotation Xrotation Yrotation
            JOINT RightFoot
            {
                OFFSET -0.000000 -62.821102 0.000000
                CHANNELS 3 Zrotation Xrotation Yrotation
                JOINT RightToeBase
                {
                    OFFSET -0.000000 -11.507608 26.556021
                    CHANNELS 3 Zrotation Xrotation Yrotation
                    End Site
                    {
                        OFFSET -0.000000 0.000000 7.081605
                    }
                }
            }
        }
    }
}
MOTION
Frames:    5
Frame Time:    0.008333
5.310956    160.805588    -13.168568    -0.702347    -1.702150    -32.036224    3.664976    0.177304    2.548372    -1.358344    -1.435311    0.834229    15.041662    4.198122    13.007176    -8.350718    0.398236    10.712089    -0.325910    8.359750    -11.247095    -35.194546    10.250396    -38.766357    28.939400    -41.585327    -52.008736    -19.607203    -24.757730    -32.291435    -4.818494    6.788846    -2.198330    35.889393    10.905284    73.487000    5.288012    -10.091420    92.843658    11.434757    -13.565713    19.923328    14.162911    -9.138165    -2.262496    -7.401243    6.231079    -8.036069    -10.626861    1.061734    40.015881    0.000000    0.000000    0.000000    -10.584355    6.795052    -9.491414    4.171317    9.523453    -6.120120    6.273104    -10.551707    -10.626570    0.000000    0.000000    0.000000    
5.328390    160.808411    -13.172543    -0.692521    -1.693406    -32.031506    3.680975    0.173395    2.534119    -1.379518    -1.440040    0.829128    15.036040    4.193094    13.010723    -8.348008    0.410405    10.716990    -0.328187    8.357677    -11.236811    -35.167942    10.257900    -38.755146    28.919249    -41.583473    -52.015182    -19.606220    -24.760252    -32.310112    -4.824995    6.786634    -2.188494    35.868958    10.920340    73.512199    5.272036    -10.109921    92.822166    11.426834    -13.567360    19.917694    14.154634    -9.156510    -2.261154    -7.400438    6.229574    -8.046794    -10.617673    1.082493    40.021122    0.000000    0.000000    0.000000    -10.593352    6.768024    -9.484125    4.177929    9.544641    -6.121105    6.271957    -10.549957    -10.647821    0.000000    0.000000    0.000000    
5.342089    160.809052    -13.172457    -0.690562    -1.696504    -32.031105    3.686572    0.188514    2.532317    -1.392145    -1.454217    0.828328    15.043534    4.192882    13.002692    -8.357887    0.412833    10.706546    -0.322265    8.361351    -11.239516    -35.151501    10.268755    -38.745770    28.906858    -41.582481    -52.028961    -19.604059    -24.762865    -32.302052    -4.825501    6.787251    -2.188056    35.856827    10.928448    73.518944    5.262715    -10.115409    92.821930    11.418531    -13.567289    19.890528    14.146193    -9.157826    -2.254069    -7.398976    6.231563    -8.030282    -10.627973    1.074223    40.005337    0.000000    0.000000    0.000000    -10.600568    6.759631    -9.485759    4.176554    9.561554    -6.124157    6.259975    -10.554482    -10.646605    0.000000    0.000000    0.000000    
5.355919    160.811874    -13.171670    -0.682507    -1.697766    -32.030743    3.684091    0.201128    2.529904    -1.391727    -1.475260    0.827475    15.052214    4.175339    13.003730    -8.378465    0.456048    10.704540    -0.331588    8.364638    -11.249254    -35.144066    10.255198    -38.725132    28.862713    -41.574497    -52.061649    -19.642895    -24.750916    -32.321602    -4.835918    6.780618    -2.185280    35.855133    10.940808    73.520767    5.252502    -10.117799    92.816093    11.406441    -13.562716    19.870052    14.130415    -9.161567    -2.252605    -7.390100    6.227089    -8.049228    -10.630284    1.083660    40.026344    0.000000    0.000000    0.000000    -10.614755    6.750290    -9.476974    4.179688    9.568121    -6.118396    6.274068    -10.548695    -10.665080    0.000000    0.000000    0.000000    
5.368070    160.814362    -13.171850    -0.681509    -1.702121    -32.032234    3.690321    0.214310    2.521951    -1.404441    -1.488226    0.824611    15.049203    4.173130    13.009738    -8.368639    0.472185    10.713385    -0.329052    8.367806    -11.248766    -35.133125    10.256836    -38.710819    28.832825    -41.565941    -52.089642    -19.626736    -24.752628    -32.312370    -4.834531    6.787005    -2.176104    35.846722    10.939414    73.535896    5.248189    -10.126935    92.807922    11.399725    -13.567881    19.870832    14.119187    -9.161613    -2.238869    -7.380761    6.232263    -8.057590    -10.635751    1.081157    40.032467    0.000000    0.000000    0.000000    -10.622005    6.747576    -9.499739    4.174495    9.575144    -6.116379    6.282138    -10.543545    -10.634636    0.000000    0.000000    0.000000    
